<svg width="95" height="25" viewBox="0 0 95 25" fill="none" xmlns="http://www.w3.org/2000/svg">
<path d="M50.3739 12.1592C49.7794 12.7371 49.4824 13.5792 49.4824 14.6856V21.5959H45.5195V8.02299H48.6651V12.502C48.8155 11.2235 49.1955 10.1928 49.8044 9.41C50.6298 8.36974 51.8187 7.84961 53.3707 7.84961H53.891V11.2676H52.9004C51.8106 11.2676 50.9683 11.5648 50.3739 12.1592Z" fill="white"/>
<path fill-rule="evenodd" clip-rule="evenodd" d="M62.3856 19.9366C62.5557 19.6479 62.696 19.3295 62.8067 18.9811V21.5962H65.9522V13.274C65.9522 12.0191 65.7044 10.9954 65.2091 10.2028C64.7138 9.3937 63.9872 8.79099 63.0296 8.3947C62.0885 7.99842 60.9242 7.80029 59.5374 7.80029C59.0583 7.80029 58.5464 7.80855 58.0016 7.82504C57.4567 7.84156 56.9283 7.86635 56.4165 7.89936C55.9047 7.93236 55.4589 7.96541 55.0789 7.99842V11.3421C55.5907 11.3091 56.1606 11.2761 56.7881 11.243C57.4156 11.21 58.0265 11.1852 58.621 11.1687C59.2154 11.1522 59.6942 11.144 60.0574 11.144C60.784 11.144 61.3123 11.3173 61.6424 11.6641C61.9729 12.0108 62.1377 12.531 62.1377 13.2245V13.274H59.6858C58.4804 13.274 57.4156 13.4309 56.4907 13.7446C55.5661 14.0418 54.8479 14.5124 54.3361 15.1564C53.8243 15.7838 53.5684 16.5929 53.5684 17.5837C53.5684 18.4917 53.7747 19.276 54.1874 19.9366C54.6001 20.5806 55.17 21.0759 55.8962 21.4225C56.6394 21.7695 57.4982 21.9428 58.4723 21.9428C59.4133 21.9428 60.206 21.7695 60.8501 21.4225C61.5106 21.0759 62.0224 20.5806 62.3856 19.9366ZM61.7416 18.1532C61.9729 17.7736 62.105 17.2451 62.1377 16.5681V15.4784H59.6612C58.9676 15.4784 58.4308 15.6517 58.0511 15.9985C57.688 16.3287 57.5063 16.7828 57.5063 17.3607C57.5063 17.9057 57.688 18.3515 58.0511 18.6981C58.4308 19.0285 58.9676 19.1934 59.6612 19.1934C60.1069 19.1934 60.5031 19.1192 60.8501 18.9705C61.2132 18.8057 61.5106 18.5332 61.7416 18.1532Z" fill="white"/>
<path d="M74.1695 22.0666C72.9971 22.0666 71.9734 21.8768 71.0981 21.4972C70.2397 21.101 69.5211 20.5723 68.9432 19.9121C68.3653 19.2516 67.936 18.5084 67.6555 17.683C67.3746 16.8407 67.2344 15.9738 67.2344 15.0822V14.6116C67.2344 13.6869 67.3831 12.8035 67.6801 11.9614C67.9775 11.1028 68.4148 10.3433 68.9928 9.68279C69.5707 9.02229 70.2892 8.50216 71.1477 8.1224C72.0226 7.74264 73.0217 7.55273 74.1445 7.55273C75.3664 7.55273 76.4481 7.79217 77.3892 8.27099C78.3302 8.73333 79.0818 9.38557 79.6432 10.2277C80.2046 11.0698 80.5182 12.0357 80.5843 13.1255H76.6956C76.6295 12.5146 76.382 12.0027 75.9528 11.5899C75.5398 11.1606 74.9372 10.946 74.1445 10.946C73.484 10.946 72.931 11.1111 72.4853 11.4413C72.0557 11.7715 71.7337 12.2256 71.5192 12.8035C71.3045 13.3815 71.1972 14.0667 71.1972 14.8593C71.1972 15.5858 71.2964 16.2463 71.4943 16.8407C71.6925 17.4186 72.0065 17.8728 72.4357 18.2029C72.8814 18.5168 73.4594 18.6736 74.1695 18.6736C74.6978 18.6736 75.1436 18.5826 75.5067 18.4012C75.8867 18.2029 76.1838 17.9389 76.3986 17.6085C76.6295 17.2618 76.7701 16.8655 76.8197 16.4197H80.6834C80.6339 17.5424 80.3199 18.5334 79.742 19.3918C79.1641 20.2341 78.3963 20.8943 77.4387 21.3734C76.4812 21.8357 75.3914 22.0666 74.1695 22.0666Z" fill="white"/>
<path fill-rule="evenodd" clip-rule="evenodd" d="M85.1255 21.4722C86.017 21.8687 87.0407 22.0666 88.1965 22.0666C89.3359 22.0666 90.343 21.8687 91.2183 21.4722C92.0933 21.076 92.8199 20.5231 93.3978 19.813C93.9758 19.1029 94.3639 18.2936 94.5621 17.3856H90.9209C90.7561 17.7983 90.4421 18.1453 89.9799 18.4258C89.5176 18.7067 88.9232 18.8469 88.1965 18.8469C87.4042 18.8469 86.7602 18.6817 86.2648 18.3516C85.7692 18.0212 85.406 17.5589 85.1751 16.9646C85.0461 16.6239 84.9529 16.2523 84.896 15.85H94.8096V14.5125C94.8096 13.2741 94.5456 12.1348 94.0169 11.0946C93.4885 10.0378 92.7208 9.18741 91.7136 8.54347C90.723 7.88297 89.5011 7.55273 88.0478 7.55273C86.9415 7.55273 85.9509 7.7509 85.0759 8.14718C84.2171 8.52694 83.499 9.04708 82.921 9.70754C82.3431 10.368 81.8974 11.1193 81.5834 11.9614C81.2864 12.787 81.1377 13.6539 81.1377 14.5621V15.0574C81.1377 15.9326 81.2864 16.7912 81.5834 17.6334C81.8974 18.4588 82.3431 19.2101 82.921 19.8871C83.5155 20.5477 84.2502 21.076 85.1255 21.4722ZM84.9262 13.5961C84.9881 13.241 85.0795 12.919 85.1997 12.6302C85.4475 12.0192 85.8107 11.5569 86.2894 11.2432C86.7682 10.9294 87.3546 10.7726 88.0478 10.7726C88.7249 10.7726 89.2863 10.9294 89.7324 11.2432C90.1947 11.5404 90.5413 11.9779 90.7726 12.5559C90.8977 12.8688 90.9888 13.2155 91.0464 13.5961H84.9262Z" fill="white"/>
<path d="M36.0834 21.5964V7.05745H31.0059V3.51562H45.2473V7.05745H40.1451V21.5964H36.0834Z" fill="white"/>
<path fill-rule="evenodd" clip-rule="evenodd" d="M12.5 2.27275C6.85163 2.27275 2.27271 6.85164 2.27271 12.5C2.27271 18.1482 6.85163 22.7273 12.5 22.7273C18.1484 22.7273 22.7272 18.1482 22.7272 12.5C22.7272 6.85164 18.1484 2.27275 12.5 2.27275ZM0 12.5C0 5.59644 5.59644 0 12.5 0C19.4034 0 24.9999 5.59644 24.9999 12.5C24.9999 19.4036 19.4034 25 12.5 25C5.59644 25 0 19.4036 0 12.5Z" fill="white"/>
<path fill-rule="evenodd" clip-rule="evenodd" d="M18.7356 8.26214C19.0689 7.21281 18.0737 6.22725 17.0276 6.57049L9.9021 8.90855C9.48964 9.04389 9.16739 9.36927 9.03602 9.78302L6.82813 16.7379C6.49502 17.7872 7.49014 18.7729 8.53621 18.4295L15.6617 16.0915C16.0742 15.9562 16.3964 15.6308 16.5278 15.217L18.7356 8.26214ZM12.7806 14.1233C13.6772 14.1233 14.404 13.3965 14.404 12.5C14.404 11.6034 13.6772 10.8766 12.7806 10.8766C11.8841 10.8766 11.1572 11.6034 11.1572 12.5C11.1572 13.3965 11.8841 14.1233 12.7806 14.1233Z" fill="white"/>
</svg>
